<?xml version="1.0" encoding="UTF-8" standalone="no"?>
<!-- Generator: Adobe Illustrator 16.0.0, SVG Export Plug-In . SVG Version: 6.00 Build 0)  -->

<svg
   xmlns:dc="http://purl.org/dc/elements/1.1/"
   xmlns:cc="http://creativecommons.org/ns#"
   xmlns:rdf="http://www.w3.org/1999/02/22-rdf-syntax-ns#"
   xmlns:svg="http://www.w3.org/2000/svg"
   xmlns="http://www.w3.org/2000/svg"
   xmlns:sodipodi="http://sodipodi.sourceforge.net/DTD/sodipodi-0.dtd"
   xmlns:inkscape="http://www.inkscape.org/namespaces/inkscape"
   version="1.1"
   id="Layer_1"
   x="0px"
   y="0px"
   width="165px"
   height="29.875px"
   viewBox="0 0 165 29.875"
   enable-background="new 0 0 165 29.875"
   xml:space="preserve"
   sodipodi:docname="logo-fr.svg"
   inkscape:version="0.92.3 (2405546, 2018-03-11)"><metadata
   id="metadata39"><rdf:RDF><cc:Work
       rdf:about=""><dc:format>image/svg+xml</dc:format><dc:type
         rdf:resource="http://purl.org/dc/dcmitype/StillImage" /><dc:title></dc:title></cc:Work></rdf:RDF></metadata><defs
   id="defs37" /><sodipodi:namedview
   pagecolor="#ffffff"
   bordercolor="#666666"
   borderopacity="1"
   objecttolerance="10"
   gridtolerance="10"
   guidetolerance="10"
   inkscape:pageopacity="0"
   inkscape:pageshadow="2"
   inkscape:window-width="1366"
   inkscape:window-height="706"
   id="namedview35"
   showgrid="false"
   inkscape:zoom="2.1575758"
   inkscape:cx="24.796348"
   inkscape:cy="14.9375"
   inkscape:window-x="-8"
   inkscape:window-y="-8"
   inkscape:window-maximized="1"
   inkscape:current-layer="Layer_1" />
<g
   id="g16">
	<path
   fill="#00B2AD"
   d="M43.257,0.707c0.463,0,0.865,0.163,1.204,0.488c0.338,0.339,0.507,0.746,0.507,1.222v5.997h3.383   c0.464,0,0.865,0.169,1.203,0.507c0.339,0.338,0.508,0.746,0.508,1.222v0.038c0,0.476-0.169,0.877-0.508,1.203   c-0.338,0.339-0.739,0.508-1.203,0.508h-3.383v11.713c0,0.513,0.182,0.949,0.545,1.313c0.364,0.362,0.808,0.542,1.335,0.542h1.503   c0.464,0,0.865,0.17,1.203,0.51c0.339,0.338,0.508,0.746,0.508,1.223v0.037c0,0.478-0.169,0.879-0.508,1.203   c-0.338,0.338-0.739,0.508-1.203,0.508h-1.503c-1.479,0-2.744-0.521-3.797-1.561c-1.04-1.055-1.56-2.313-1.56-3.775V2.417   c0-0.476,0.169-0.883,0.507-1.222c0.338-0.326,0.739-0.488,1.203-0.488H43.257z"
   id="path2" />
	<path
   fill="#00B2AD"
   d="M70.212,11.42c2.005,2.005,3.007,4.423,3.007,7.256v8.553c0,0.478-0.169,0.879-0.507,1.203   c-0.338,0.338-0.739,0.508-1.204,0.508h-0.056c-0.463,0-0.864-0.17-1.203-0.508c-0.338-0.324-0.507-0.727-0.507-1.203v-0.864   c-1.942,1.717-4.205,2.575-6.786,2.575c-2.832,0-5.25-1.002-7.255-3.008c-2.005-2.005-3.008-4.424-3.008-7.256   c0-2.833,1.002-5.251,3.008-7.256c2.005-2.005,4.423-3.007,7.255-3.007C65.789,8.413,68.208,9.416,70.212,11.42z M58.145,13.883   c-1.316,1.329-1.974,2.926-1.974,4.794c0,1.88,0.657,3.483,1.974,4.813c1.328,1.315,2.932,1.972,4.812,1.972   s3.477-0.654,4.793-1.972c1.329-1.328,1.993-2.933,1.993-4.813c0-1.868-0.664-3.465-1.993-4.794   c-1.316-1.328-2.913-1.992-4.793-1.992S59.473,12.555,58.145,13.883z"
   id="path4" />
	<path
   fill="#00B2AD"
   d="M78.746,0.707c0.463,0,0.865,0.163,1.203,0.488c0.338,0.339,0.508,0.746,0.508,1.222v13.59h1.278   c1.742,0,3.263-0.581,4.567-1.749c1.278-1.164,2.005-2.6,2.181-4.304c0.051-0.438,0.238-0.801,0.564-1.09   c0.325-0.3,0.707-0.451,1.145-0.451h0.06c0.501,0,0.92,0.188,1.259,0.564c0.34,0.375,0.48,0.821,0.432,1.335   c-0.289,2.981-1.641,5.375-4.061,7.179c1.504,0.916,2.694,2.138,3.572,3.666c0.915,1.579,1.371,3.284,1.371,5.112v0.959   c0,0.478-0.168,0.879-0.506,1.203c-0.34,0.338-0.741,0.508-1.205,0.508h-0.055c-0.465,0-0.867-0.17-1.205-0.508   c-0.338-0.324-0.508-0.727-0.508-1.203V26.27c-0.012-1.867-0.677-3.457-1.992-4.773c-1.326-1.314-2.926-1.973-4.792-1.973h-2.105   v7.705c0,0.479-0.17,0.879-0.508,1.203c-0.338,0.34-0.739,0.508-1.203,0.508h-0.057c-0.463,0-0.865-0.168-1.203-0.508   c-0.338-0.324-0.508-0.726-0.508-1.203V2.417c0-0.476,0.17-0.883,0.508-1.222c0.338-0.326,0.74-0.488,1.203-0.488H78.746z"
   id="path6" />
	<path
   fill="#00B2AD"
   d="M99.499,20.462c0,1.38,0.487,2.558,1.465,3.533c0.979,0.979,2.155,1.465,3.535,1.465   c1.378,0,2.554-0.485,3.532-1.465c0.979-0.976,1.468-2.153,1.468-3.533v-10.32c0-0.476,0.17-0.884,0.508-1.222   c0.339-0.338,0.744-0.507,1.22-0.507h0.039c0.477,0,0.877,0.169,1.203,0.507c0.338,0.338,0.508,0.746,0.508,1.222v10.32   c0,1.38,0.487,2.558,1.465,3.533c0.979,0.979,2.158,1.465,3.535,1.465c1.39,0,2.573-0.485,3.551-1.465   c0.979-0.976,1.469-2.153,1.469-3.533v-10.32c0-0.476,0.17-0.884,0.508-1.222c0.326-0.338,0.727-0.507,1.203-0.507h0.037   c0.477,0,0.882,0.169,1.222,0.507c0.326,0.338,0.489,0.746,0.489,1.222v10.32c0,2.345-0.829,4.343-2.48,5.997   c-1.654,1.652-3.652,2.48-5.996,2.48c-2.795,0-5.039-1.109-6.731-3.328c-1.704,2.219-3.951,3.328-6.746,3.328   c-2.344,0-4.343-0.828-5.997-2.48c-1.652-1.654-2.48-3.652-2.48-5.997v-10.32c0-0.476,0.168-0.884,0.509-1.222   c0.338-0.338,0.737-0.507,1.202-0.507h0.058c0.463,0,0.864,0.169,1.202,0.507s0.508,0.746,0.508,1.222v10.32H99.499z"
   id="path8" />
	<path
   fill="#00B2AD"
   d="M132.656,4.842c-0.576,0-1.065-0.201-1.467-0.602c-0.399-0.4-0.602-0.89-0.602-1.465   c0-0.565,0.201-1.047,0.602-1.448c0.4-0.4,0.891-0.602,1.467-0.602c0.563,0,1.047,0.201,1.447,0.602   c0.412,0.401,0.619,0.883,0.619,1.448c0,0.576-0.207,1.065-0.619,1.465C133.703,4.641,133.219,4.842,132.656,4.842z M132.676,8.413   c0.477,0,0.876,0.169,1.202,0.507c0.338,0.338,0.506,0.746,0.506,1.222v17.086c0,0.478-0.168,0.879-0.506,1.203   c-0.326,0.338-0.726,0.508-1.202,0.508h-0.037c-0.479,0-0.885-0.17-1.223-0.508c-0.338-0.324-0.508-0.727-0.508-1.203V10.142   c0-0.476,0.17-0.884,0.508-1.222s0.744-0.507,1.223-0.507H132.676z"
   id="path10" />
	<path
   fill="#00B2AD"
   d="M142.337,27.229c0,0.479-0.17,0.879-0.508,1.203c-0.338,0.34-0.74,0.508-1.203,0.508h-0.058   c-0.465,0-0.863-0.168-1.201-0.508c-0.342-0.324-0.51-0.726-0.51-1.203V16.947c0-2.355,0.832-4.368,2.504-6.034   c1.664-1.667,3.674-2.5,6.029-2.5c2.344,0,4.351,0.833,6.019,2.5c1.666,1.666,2.5,3.678,2.5,6.034v10.281   c0,0.478-0.171,0.879-0.511,1.203c-0.323,0.338-0.727,0.508-1.203,0.508h-0.035c-0.479,0-0.885-0.17-1.225-0.508   c-0.338-0.324-0.506-0.727-0.506-1.203V16.947c0-1.393-0.488-2.583-1.465-3.571c-0.99-0.99-2.184-1.485-3.574-1.485   c-1.404,0-2.6,0.495-3.59,1.485c-0.976,0.988-1.465,2.181-1.465,3.571L142.337,27.229L142.337,27.229z"
   id="path12" />
	<path
   fill="#00B2AD"
   d="M162.111,4.842c-0.577,0-1.065-0.201-1.469-0.602c-0.398-0.4-0.603-0.89-0.603-1.465   c0-0.565,0.203-1.047,0.603-1.448c0.402-0.4,0.892-0.602,1.469-0.602c0.563,0,1.047,0.201,1.447,0.602   c0.414,0.401,0.619,0.883,0.619,1.448c0,0.576-0.205,1.065-0.619,1.465C163.158,4.641,162.674,4.842,162.111,4.842z M162.13,8.413   c0.476,0,0.877,0.169,1.203,0.507c0.338,0.338,0.508,0.746,0.508,1.222v17.086c0,0.478-0.17,0.879-0.508,1.203   c-0.326,0.338-0.728,0.508-1.203,0.508h-0.038c-0.475,0-0.883-0.17-1.221-0.508c-0.342-0.324-0.51-0.727-0.51-1.203V10.142   c0-0.476,0.168-0.884,0.51-1.222c0.338-0.338,0.746-0.507,1.221-0.507H162.13z"
   id="path14" />
</g>
<path
   fill="#00B2AD"
   d="M25.235,25.91c-5.265,2.797-11.668,1.742-15.752-2.278c-0.538-0.521-1.036-1.101-1.492-1.743  c-0.352-0.476-0.684-0.993-0.974-1.554c-0.291-0.537-0.539-1.099-0.746-1.679c-0.186-0.517-2.493,1.058-2.62,0.539  c0-0.269,2.018-2.467,2.018-2.735C4.635,10.842,7.267,4.937,12.593,2.117c5.305-2.818,11.668-1.719,15.752,2.281  c0.247,0.228,2.549,0.497,2.796,0.746c0.27,0.31-1.553,0.642-1.304,0.994c0.352,0.497,0.684,1.017,0.974,1.554  c0.29,0.539,0.538,1.098,0.725,1.679c0.29,0.727,0.498,1.451,0.622,2.199v0.02C33.193,17.205,30.54,23.091,25.235,25.91z"
   id="path18" />
<path
   fill="#00DDC1"
   d="M25.235,25.91c-5.265,2.797-11.668,1.742-15.752-2.278c-0.538-0.521-1.036-1.101-1.492-1.743  c-0.352-0.476-0.684-0.993-0.974-1.554c-0.291-0.537-0.539-1.099-0.746-1.679c-0.186-0.517-2.493,1.058-2.62,0.539  c0-0.269,2.018-2.467,2.018-2.735C4.635,10.842,7.267,4.937,12.593,2.117L25.235,25.91z"
   id="path20" />
<path
   fill="#00B2AD"
   d="M13.732,12.978c-1.143,0-2.072-0.93-2.072-2.072c0-1.144,0.93-2.071,2.072-2.071  c1.142,0,2.073,0.928,2.073,2.071C15.806,12.048,14.875,12.978,13.732,12.978z"
   id="path22" />
<path
   fill="#04909B"
   d="M17.877,6.761h2.072v2.073h-2.072V6.761z"
   id="path24" />
<path
   fill="#A8D3D8"
   d="M32.157,11.57v0.02c-2.778,2.279-6.57,4.745-10.819,7.005c-3.273,1.74-9.388,4.538-12.413,5.202  c-2.281,0.622-6.349,1.533-7.468-0.539c-0.829-1.595,0.586-3.813,4.213-6.798c0.125,0.745,0.333,1.472,0.602,2.196  c-2.507,2.197-3.033,3.379-2.97,3.647c0.351,0.374,2.058,0.311,4.69-0.415c2.963-0.786,7.233-2.402,12.372-5.139  c5.141-2.736,8.85-5.347,11.171-7.379c2.073-1.782,3.115-3.129,2.992-3.646c-0.165-0.167-1.478-0.436-4.69,0.414  c-0.458-0.641-0.955-1.221-1.492-1.74c4.496-1.346,7.176-1.223,8.026,0.372C37.552,6.969,34.063,9.952,32.157,11.57z"
   id="path26" />
<path
   fill="#DEECF1"
   d="M21.338,18.595c-3.273,1.74-9.388,4.538-12.413,5.202c-2.281,0.622-6.349,1.533-7.468-0.539  c-0.829-1.595,0.586-3.813,4.213-6.798c0.125,0.745,0.333,1.472,0.602,2.196c-2.507,2.197-3.033,3.379-2.97,3.647  c0.351,0.374,2.058,0.311,4.69-0.415c2.963-0.786,7.233-2.402,12.372-5.139L21.338,18.595z"
   id="path28" />
<path
   fill="#FDBF00"
   d="M33.49,23.341c-1.72,0-3.108,1.389-3.108,3.108s1.388,3.107,3.108,3.107c1.72,0,3.108-1.388,3.108-3.107  S35.21,23.341,33.49,23.341z"
   id="path30" />
<path
   fill="#FF9F00"
   d="M36.598,26.449c0,1.72-1.388,3.107-3.108,3.107v-6.216C35.21,23.341,36.598,24.729,36.598,26.449z"
   id="path32" />
</svg>