<?xml version="1.0" encoding="UTF-8" standalone="no"?>
<svg
   xmlns:dc="http://purl.org/dc/elements/1.1/"
   xmlns:cc="http://creativecommons.org/ns#"
   xmlns:rdf="http://www.w3.org/1999/02/22-rdf-syntax-ns#"
   xmlns:svg="http://www.w3.org/2000/svg"
   xmlns="http://www.w3.org/2000/svg"
   xml:space="preserve"
   enable-background="new 0 0 165 29.875"
   viewBox="0 0 165 29.875"
   height="29.875px"
   width="165px"
   y="0px"
   x="0px"
   id="Layer_1"
   version="1.1"><metadata
   id="metadata39"><rdf:RDF><cc:Work
       rdf:about=""><dc:format>image/svg+xml</dc:format><dc:type
         rdf:resource="http://purl.org/dc/dcmitype/StillImage" /><dc:title></dc:title></cc:Work></rdf:RDF></metadata><defs
   id="defs37" />

<path
   id="path18"
   d="M25.235,25.91c-5.265,2.797-11.668,1.742-15.752-2.278c-0.538-0.521-1.036-1.101-1.492-1.743  c-0.352-0.476-0.684-0.993-0.974-1.554c-0.291-0.537-0.539-1.099-0.746-1.679c-0.186-0.517-2.493,1.058-2.62,0.539  c0-0.269,2.018-2.467,2.018-2.735C4.635,10.842,7.267,4.937,12.593,2.117c5.305-2.818,11.668-1.719,15.752,2.281  c0.247,0.228,2.549,0.497,2.796,0.746c0.27,0.31-1.553,0.642-1.304,0.994c0.352,0.497,0.684,1.017,0.974,1.554  c0.29,0.539,0.538,1.098,0.725,1.679c0.29,0.727,0.498,1.451,0.622,2.199v0.02C33.193,17.205,30.54,23.091,25.235,25.91z"
   fill="#00B2AD" />
<path
   id="path20"
   d="M25.235,25.91c-5.265,2.797-11.668,1.742-15.752-2.278c-0.538-0.521-1.036-1.101-1.492-1.743  c-0.352-0.476-0.684-0.993-0.974-1.554c-0.291-0.537-0.539-1.099-0.746-1.679c-0.186-0.517-2.493,1.058-2.62,0.539  c0-0.269,2.018-2.467,2.018-2.735C4.635,10.842,7.267,4.937,12.593,2.117L25.235,25.91z"
   fill="#00DDC1" />
<path
   id="path22"
   d="M13.732,12.978c-1.143,0-2.072-0.93-2.072-2.072c0-1.144,0.93-2.071,2.072-2.071  c1.142,0,2.073,0.928,2.073,2.071C15.806,12.048,14.875,12.978,13.732,12.978z"
   fill="#00B2AD" />
<path
   id="path24"
   d="M17.877,6.761h2.072v2.073h-2.072V6.761z"
   fill="#04909B" />
<path
   id="path26"
   d="M32.157,11.57v0.02c-2.778,2.279-6.57,4.745-10.819,7.005c-3.273,1.74-9.388,4.538-12.413,5.202  c-2.281,0.622-6.349,1.533-7.468-0.539c-0.829-1.595,0.586-3.813,4.213-6.798c0.125,0.745,0.333,1.472,0.602,2.196  c-2.507,2.197-3.033,3.379-2.97,3.647c0.351,0.374,2.058,0.311,4.69-0.415c2.963-0.786,7.233-2.402,12.372-5.139  c5.141-2.736,8.85-5.347,11.171-7.379c2.073-1.782,3.115-3.129,2.992-3.646c-0.165-0.167-1.478-0.436-4.69,0.414  c-0.458-0.641-0.955-1.221-1.492-1.74c4.496-1.346,7.176-1.223,8.026,0.372C37.552,6.969,34.063,9.952,32.157,11.57z"
   fill="#A8D3D8" />
<path
   id="path28"
   d="M21.338,18.595c-3.273,1.74-9.388,4.538-12.413,5.202c-2.281,0.622-6.349,1.533-7.468-0.539  c-0.829-1.595,0.586-3.813,4.213-6.798c0.125,0.745,0.333,1.472,0.602,2.196c-2.507,2.197-3.033,3.379-2.97,3.647  c0.351,0.374,2.058,0.311,4.69-0.415c2.963-0.786,7.233-2.402,12.372-5.139L21.338,18.595z"
   fill="#DEECF1" />
<path
   id="path30"
   d="M33.49,23.341c-1.72,0-3.108,1.389-3.108,3.108s1.388,3.107,3.108,3.107c1.72,0,3.108-1.388,3.108-3.107  S35.21,23.341,33.49,23.341z"
   fill="#FDBF00" />
<path
   id="path32"
   d="M36.598,26.449c0,1.72-1.388,3.107-3.108,3.107v-6.216C35.21,23.341,36.598,24.729,36.598,26.449z"
   fill="#FF9F00" />
<text
   transform="scale(1.1958594,0.83621873)"
   id="text848"
   y="25.553556"
   x="35.774036"
   style="font-style:normal;font-variant:normal;font-weight:normal;font-stretch:normal;font-size:27.90469933px;line-height:1.25;font-family:Pistoletto;-inkscape-font-specification:Pistoletto;letter-spacing:0px;word-spacing:0px;fill:#00b2ad;fill-opacity:1;stroke:none;stroke-width:0.99999994;"
   xml:space="preserve"><tspan
     style="font-style:normal;font-variant:normal;font-weight:normal;font-stretch:normal;font-family:RAOOF;-inkscape-font-specification:RAOOF;stroke-width:0.99999994;fill:#00b2ad;fill-opacity:1;"
     y="25.553556"
     x="35.774036"
     id="tspan846">تـكــو يــنـــــــــــــي</tspan></text>

</svg>