<?xml version="1.0" encoding="UTF-8" standalone="no"?>
<!-- Generator: Adobe Illustrator 16.0.0, SVG Export Plug-In . SVG Version: 6.00 Build 0)  -->

<svg
   xmlns:dc="http://purl.org/dc/elements/1.1/"
   xmlns:cc="http://creativecommons.org/ns#"
   xmlns:rdf="http://www.w3.org/1999/02/22-rdf-syntax-ns#"
   xmlns:svg="http://www.w3.org/2000/svg"
   xmlns="http://www.w3.org/2000/svg"
   xmlns:sodipodi="http://sodipodi.sourceforge.net/DTD/sodipodi-0.dtd"
   xmlns:inkscape="http://www.inkscape.org/namespaces/inkscape"
   version="1.1"
   id="Layer_1"
   x="0px"
   y="0px"
   width="165px"
   height="29.875px"
   viewBox="0 0 165 29.875"
   enable-background="new 0 0 165 29.875"
   xml:space="preserve"
   sodipodi:docname="logo-fr.svg"
   inkscape:version="0.92.3 (2405546, 2018-03-11)"><metadata
   id="metadata39"><rdf:RDF><cc:Work
       rdf:about=""><dc:format>image/svg+xml</dc:format><dc:type
         rdf:resource="http://purl.org/dc/dcmitype/StillImage" /><dc:title></dc:title></cc:Work></rdf:RDF></metadata><defs
   id="defs37" /><sodipodi:namedview
   pagecolor="#ffffff"
   bordercolor="#666666"
   borderopacity="1"
   objecttolerance="10"
   gridtolerance="10"
   guidetolerance="10"
   inkscape:pageopacity="0"
   inkscape:pageshadow="2"
   inkscape:window-width="1366"
   inkscape:window-height="706"
   id="namedview35"
   showgrid="false"
   inkscape:zoom="2.1575758"
   inkscape:cx="51.292366"
   inkscape:cy="72.462897"
   inkscape:window-x="-8"
   inkscape:window-y="-8"
   inkscape:window-maximized="1"
   inkscape:current-layer="Layer_1" />

<path
   d="M25.235,25.91c-5.265,2.797-11.668,1.742-15.752-2.278c-0.538-0.521-1.036-1.101-1.492-1.743  c-0.352-0.476-0.684-0.993-0.974-1.554c-0.291-0.537-0.539-1.099-0.746-1.679c-0.186-0.517-2.493,1.058-2.62,0.539  c0-0.269,2.018-2.467,2.018-2.735C4.635,10.842,7.267,4.937,12.593,2.117c5.305-2.818,11.668-1.719,15.752,2.281  c0.247,0.228,2.549,0.497,2.796,0.746c0.27,0.31-1.553,0.642-1.304,0.994c0.352,0.497,0.684,1.017,0.974,1.554  c0.29,0.539,0.538,1.098,0.725,1.679c0.29,0.727,0.498,1.451,0.622,2.199v0.02C33.193,17.205,30.54,23.091,25.235,25.91z"
   id="path18"
   style="fill:#2f3c7e;fill-opacity:1"
   fill="#00B2AD" />
<path
   fill="#00DDC1"
   d="M25.235,25.91c-5.265,2.797-11.668,1.742-15.752-2.278c-0.538-0.521-1.036-1.101-1.492-1.743  c-0.352-0.476-0.684-0.993-0.974-1.554c-0.291-0.537-0.539-1.099-0.746-1.679c-0.186-0.517-2.493,1.058-2.62,0.539  c0-0.269,2.018-2.467,2.018-2.735C4.635,10.842,7.267,4.937,12.593,2.117L25.235,25.91z"
   id="path20"
   style="fill:#5067c7;fill-opacity:1" />
<path
   fill="#00B2AD"
   d="M13.732,12.978c-1.143,0-2.072-0.93-2.072-2.072c0-1.144,0.93-2.071,2.072-2.071  c1.142,0,2.073,0.928,2.073,2.071C15.806,12.048,14.875,12.978,13.732,12.978z"
   id="path22"
   style="fill:#020074;fill-opacity:1" />
<path
   fill="#04909B"
   d="M17.877,6.761h2.072v2.073h-2.072V6.761z"
   id="path24" />
<path
   fill="#A8D3D8"
   d="M32.157,11.57v0.02c-2.778,2.279-6.57,4.745-10.819,7.005c-3.273,1.74-9.388,4.538-12.413,5.202  c-2.281,0.622-6.349,1.533-7.468-0.539c-0.829-1.595,0.586-3.813,4.213-6.798c0.125,0.745,0.333,1.472,0.602,2.196  c-2.507,2.197-3.033,3.379-2.97,3.647c0.351,0.374,2.058,0.311,4.69-0.415c2.963-0.786,7.233-2.402,12.372-5.139  c5.141-2.736,8.85-5.347,11.171-7.379c2.073-1.782,3.115-3.129,2.992-3.646c-0.165-0.167-1.478-0.436-4.69,0.414  c-0.458-0.641-0.955-1.221-1.492-1.74c4.496-1.346,7.176-1.223,8.026,0.372C37.552,6.969,34.063,9.952,32.157,11.57z"
   id="path26"
   style="fill:#36d3d8;fill-opacity:1" />
<path
   fill="#DEECF1"
   d="M21.338,18.595c-3.273,1.74-9.388,4.538-12.413,5.202c-2.281,0.622-6.349,1.533-7.468-0.539  c-0.829-1.595,0.586-3.813,4.213-6.798c0.125,0.745,0.333,1.472,0.602,2.196c-2.507,2.197-3.033,3.379-2.97,3.647  c0.351,0.374,2.058,0.311,4.69-0.415c2.963-0.786,7.233-2.402,12.372-5.139L21.338,18.595z"
   id="path28"
   style="fill:#acecf1;fill-opacity:1" />
<path
   fill="#FDBF00"
   d="M33.49,23.341c-1.72,0-3.108,1.389-3.108,3.108s1.388,3.107,3.108,3.107c1.72,0,3.108-1.388,3.108-3.107  S35.21,23.341,33.49,23.341z"
   id="path30" />
<path
   fill="#FF9F00"
   d="M36.598,26.449c0,1.72-1.388,3.107-3.108,3.107v-6.216C35.21,23.341,36.598,24.729,36.598,26.449z"
   id="path32" />
<text
   xml:space="preserve"
   style="font-style:normal;font-variant:normal;font-weight:normal;font-stretch:normal;font-size:16.63795853px;line-height:1.25;font-family:Pistoletto;-inkscape-font-specification:Pistoletto;letter-spacing:0px;word-spacing:0px;fill:#2f3c7e;fill-opacity:1;stroke:none;stroke-width:0.99999988"
   x="44.04781"
   y="28.989246"
   id="text817-1"><tspan
     sodipodi:role="line"
     id="tspan815-9"
     x="44.04781"
     y="28.989246"
     style="font-style:normal;font-variant:normal;font-weight:normal;font-stretch:normal;font-size:39.93110275px;font-family:'Remove DEMO';-inkscape-font-specification:'Remove DEMO';fill:#2f3c7e;fill-opacity:1;stroke-width:0.99999988">takwini<tspan
   style="font-size:13.31036472px;fill:#00aad4;fill-opacity:1;stroke-width:0.99999988"
   id="tspan823-7" /></tspan></text>
</svg>