<?xml version="1.0" encoding="utf-8"?>
<!-- Generator: Adobe Illustrator 16.0.0, SVG Export Plug-In . SVG Version: 6.00 Build 0)  -->
<!DOCTYPE svg PUBLIC "-//W3C//DTD SVG 1.1//EN" "http://www.w3.org/Graphics/SVG/1.1/DTD/svg11.dtd">
<svg version="1.1" id="Layer_1" xmlns="http://www.w3.org/2000/svg" xmlns:xlink="http://www.w3.org/1999/xlink" x="0px" y="0px"
	 width="165px" height="29.875px" viewBox="0 0 165 29.875" enable-background="new 0 0 165 29.875" xml:space="preserve">
<path fill="#00B2AD" d="M25.235,25.91c-5.265,2.797-11.668,1.742-15.752-2.278c-0.538-0.521-1.036-1.101-1.492-1.743
	c-0.352-0.476-0.684-0.992-0.974-1.554c-0.291-0.537-0.539-1.099-0.746-1.679c-0.186-0.518-2.493,1.058-2.62,0.539
	c0-0.271,2.018-2.467,2.018-2.735C4.635,10.842,7.267,4.937,12.593,2.117c5.305-2.818,11.668-1.719,15.752,2.281
	c0.247,0.228,2.549,0.497,2.796,0.746c0.27,0.31-1.553,0.642-1.304,0.994c0.352,0.497,0.684,1.017,0.974,1.554
	c0.29,0.539,0.538,1.098,0.725,1.679c0.29,0.727,0.498,1.451,0.622,2.199v0.02C33.193,17.205,30.54,23.091,25.235,25.91z"/>
<path fill="#00DDC1" d="M25.235,25.91c-5.265,2.797-11.668,1.742-15.752-2.278c-0.538-0.521-1.036-1.101-1.492-1.743
	c-0.352-0.476-0.684-0.992-0.974-1.554c-0.291-0.537-0.539-1.099-0.746-1.679c-0.186-0.518-2.493,1.058-2.62,0.539
	c0-0.271,2.018-2.467,2.018-2.735C4.635,10.842,7.267,4.937,12.593,2.117L25.235,25.91z"/>
<path fill="#00B2AD" d="M13.732,12.978c-1.143,0-2.072-0.93-2.072-2.072c0-1.144,0.93-2.071,2.072-2.071s2.073,0.928,2.073,2.071
	C15.806,12.048,14.875,12.978,13.732,12.978z"/>
<path fill="#04909B" d="M17.877,6.761h2.072v2.073h-2.072V6.761z"/>
<path fill="#A8D3D8" d="M32.157,11.57v0.02c-2.778,2.279-6.57,4.745-10.819,7.006c-3.273,1.739-9.388,4.537-12.413,5.201
	c-2.281,0.622-6.349,1.533-7.468-0.539c-0.829-1.595,0.586-3.813,4.213-6.798c0.125,0.745,0.333,1.472,0.602,2.196
	c-2.507,2.197-3.033,3.379-2.97,3.646c0.351,0.374,2.058,0.313,4.69-0.413c2.963-0.787,7.233-2.402,12.372-5.141
	c5.141-2.736,8.85-5.347,11.171-7.379c2.073-1.782,3.115-3.129,2.992-3.646c-0.165-0.167-1.478-0.436-4.69,0.414
	c-0.458-0.641-0.955-1.221-1.492-1.74c4.496-1.346,7.176-1.223,8.026,0.372C37.552,6.969,34.063,9.952,32.157,11.57z"/>
<path fill="#DEECF1" d="M21.338,18.596c-3.273,1.739-9.388,4.537-12.413,5.201c-2.281,0.622-6.349,1.533-7.468-0.539
	c-0.829-1.595,0.586-3.813,4.213-6.798c0.125,0.745,0.333,1.472,0.602,2.196c-2.507,2.197-3.033,3.379-2.97,3.646
	c0.351,0.374,2.058,0.313,4.69-0.413c2.963-0.787,7.233-2.402,12.372-5.141L21.338,18.596z"/>
<path fill="#FDBF00" d="M33.49,23.341c-1.72,0-3.108,1.39-3.108,3.108c0,1.718,1.388,3.107,3.108,3.107
	c1.72,0,3.108-1.39,3.108-3.107C36.598,24.73,35.21,23.341,33.49,23.341z"/>
<path fill="#FF9F00" d="M36.598,26.449c0,1.72-1.388,3.107-3.108,3.107V23.34C35.21,23.341,36.598,24.729,36.598,26.449z"/>
<g>
	<path fill="#00B2AD" d="M69.462,19.546c0.382,0.391,0.965,0.587,1.747,0.587h0.559c0.112,0,0.186,0.032,0.224,0.098
		c0.037,0.065,0.056,0.126,0.056,0.182v1.649c0,0.056-0.019,0.116-0.056,0.182c-0.038,0.064-0.112,0.098-0.224,0.098h-1.006
		c-1.453,0-2.534-0.419-3.242-1.258c-0.708-0.839-1.063-1.938-1.063-3.299V8.057h-2.068c-1.509,0-2.637,0.419-3.382,1.258
		c-0.746,0.838-1.118,1.892-1.118,3.159v9.867h-8.833c-1.976,0-3.541-0.521-4.696-1.565c-1.155-1.043-1.733-2.441-1.733-4.193V8.476
		h2.432v7.911c0,1.1,0.368,1.999,1.104,2.697c0.736,0.699,1.868,1.049,3.396,1.049h5.898v-7.855c0-1.211,0.261-2.306,0.783-3.285
		c0.521-0.978,1.271-1.747,2.25-2.306s2.12-0.838,3.424-0.838h4.976v11.769C68.889,18.512,69.08,19.154,69.462,19.546z
		 M49.853,28.322v-2.823h2.628v2.823H49.853z M55.108,28.322v-2.823h2.627v2.823H55.108z"/>
	<path fill="#00B2AD" d="M75.625,20.23c0.037,0.065,0.056,0.126,0.056,0.182v1.649c0,0.056-0.019,0.116-0.056,0.182
		c-0.038,0.064-0.112,0.098-0.224,0.098h-4.36c-0.112,0-0.186-0.033-0.224-0.098c-0.037-0.065-0.056-0.126-0.056-0.182v-1.649
		c0-0.056,0.019-0.116,0.056-0.182c0.038-0.065,0.112-0.098,0.224-0.098h4.36C75.514,20.133,75.588,20.165,75.625,20.23z"/>
	<path fill="#00B2AD" d="M79.259,20.23c0.037,0.065,0.056,0.126,0.056,0.182v1.649c0,0.056-0.019,0.116-0.056,0.182
		c-0.038,0.064-0.112,0.098-0.224,0.098h-4.36c-0.112,0-0.186-0.033-0.224-0.098c-0.037-0.065-0.056-0.126-0.056-0.182v-1.649
		c0-0.056,0.019-0.116,0.056-0.182c0.038-0.065,0.112-0.098,0.224-0.098h4.36C79.147,20.133,79.222,20.165,79.259,20.23z"/>
	<path fill="#00B2AD" d="M82.893,20.23c0.037,0.065,0.056,0.126,0.056,0.182v1.649c0,0.056-0.019,0.116-0.056,0.182
		c-0.038,0.064-0.112,0.098-0.224,0.098h-4.36c-0.112,0-0.186-0.033-0.224-0.098c-0.037-0.065-0.056-0.126-0.056-0.182v-1.649
		c0-0.056,0.019-0.116,0.056-0.182c0.038-0.065,0.112-0.098,0.224-0.098h4.36C82.781,20.133,82.855,20.165,82.893,20.23z"/>
	<path fill="#00B2AD" d="M86.526,20.23c0.037,0.065,0.056,0.126,0.056,0.182v1.649c0,0.056-0.019,0.116-0.056,0.182
		c-0.037,0.064-0.111,0.098-0.224,0.098h-4.36c-0.112,0-0.186-0.033-0.224-0.098c-0.037-0.065-0.056-0.126-0.056-0.182v-1.649
		c0-0.056,0.019-0.116,0.056-0.182c0.038-0.065,0.112-0.098,0.224-0.098h4.36C86.415,20.133,86.489,20.165,86.526,20.23z"/>
	<path fill="#00B2AD" d="M92.564,18.288c0.651,1.229,1.807,1.845,3.466,1.845c0.112,0,0.187,0.032,0.224,0.098
		s0.056,0.126,0.056,0.182v1.649c0,0.056-0.019,0.116-0.056,0.182c-0.037,0.064-0.111,0.098-0.224,0.098
		c-1.752,0-3.205-0.727-4.36-2.181c-1.081,1.454-2.535,2.181-4.361,2.181h-1.006c-0.111,0-0.187-0.033-0.224-0.098
		c-0.037-0.065-0.056-0.126-0.056-0.182v-1.649c0-0.056,0.019-0.116,0.056-0.182s0.112-0.098,0.224-0.098h0.559
		c1.025,0,1.863-0.35,2.517-1.049c0.651-0.698,0.978-1.579,0.978-2.642V8.839h2.433v7.827
		C92.788,17.281,92.713,17.822,92.564,18.288z M90.216,6.1V3.277h2.628V6.1H90.216z"/>
	<path fill="#00B2AD" d="M96.03,22.341c-0.111,0-0.187-0.037-0.224-0.112c-0.037-0.074-0.056-0.13-0.056-0.167v-1.649
		c0-0.056,0.019-0.116,0.056-0.182s0.112-0.098,0.224-0.098h5.535V8.839h2.403v13.501H96.03z M96.589,28.322v-2.823h2.628v2.823
		H96.589z M101.845,28.322v-2.823h2.627v2.823H101.845z"/>
	<path fill="#00B2AD" d="M122.669,20.23c0.037,0.065,0.056,0.126,0.056,0.182v1.649c0,0.056-0.019,0.116-0.056,0.182
		c-0.038,0.064-0.112,0.098-0.224,0.098h-2.823c-0.02,1.938-0.569,3.424-1.649,4.458c-1.081,1.035-2.675,1.729-4.78,2.083
		l-1.006-2.208c1.695-0.262,2.948-0.713,3.759-1.356c0.812-0.643,1.217-1.635,1.217-2.977V11.076
		c-0.914-0.205-1.743-0.308-2.488-0.308c-1.416,0-2.525,0.461-3.326,1.384c-0.802,0.922-1.202,2.092-1.202,3.508
		c0,1.249,0.382,2.306,1.146,3.173c0.764,0.866,1.835,1.3,3.214,1.3h1.762l-0.979,2.208h-0.923c-1.397,0-2.604-0.308-3.62-0.923
		c-1.016-0.614-1.788-1.443-2.319-2.487s-0.797-2.189-0.797-3.438c0-1.211,0.284-2.348,0.853-3.41
		c0.568-1.062,1.397-1.915,2.487-2.558c1.091-0.643,2.372-0.964,3.844-0.964c1.044,0,2.386,0.159,4.025,0.475
		c0.13,0.019,0.392,0.065,0.783,0.14v10.958h2.823C122.557,20.133,122.631,20.165,122.669,20.23z"/>
	<path fill="#00B2AD" d="M126.303,20.23c0.037,0.065,0.056,0.126,0.056,0.182v1.649c0,0.056-0.019,0.116-0.056,0.182
		c-0.037,0.064-0.111,0.098-0.224,0.098h-4.36c-0.112,0-0.187-0.033-0.224-0.098c-0.037-0.065-0.056-0.126-0.056-0.182v-1.649
		c0-0.056,0.019-0.116,0.056-0.182s0.111-0.098,0.224-0.098h4.36C126.191,20.133,126.266,20.165,126.303,20.23z"/>
	<path fill="#00B2AD" d="M129.937,20.23c0.037,0.065,0.056,0.126,0.056,0.182v1.649c0,0.056-0.019,0.116-0.056,0.182
		c-0.037,0.064-0.111,0.098-0.224,0.098h-4.36c-0.112,0-0.187-0.033-0.224-0.098c-0.037-0.065-0.056-0.126-0.056-0.182v-1.649
		c0-0.056,0.019-0.116,0.056-0.182s0.111-0.098,0.224-0.098h4.36C129.825,20.133,129.899,20.165,129.937,20.23z"/>
	<path fill="#00B2AD" d="M133.569,20.23c0.037,0.065,0.056,0.126,0.056,0.182v1.649c0,0.056-0.019,0.116-0.056,0.182
		c-0.037,0.064-0.111,0.098-0.224,0.098h-4.36c-0.112,0-0.187-0.033-0.224-0.098c-0.037-0.065-0.056-0.126-0.056-0.182v-1.649
		c0-0.056,0.019-0.116,0.056-0.182s0.111-0.098,0.224-0.098h4.36C133.458,20.133,133.532,20.165,133.569,20.23z"/>
	<path fill="#00B2AD" d="M143.241,9.958c1.603,0,2.944,0.261,4.025,0.783c1.08,0.522,1.882,1.235,2.403,2.139
		s0.783,1.915,0.783,3.033c0,0.913-0.178,1.798-0.531,2.655c0.671,1.044,1.771,1.565,3.298,1.565c0.112,0,0.187,0.032,0.224,0.098
		s0.057,0.126,0.057,0.182v1.649c0,0.056-0.02,0.116-0.057,0.182c-0.037,0.064-0.111,0.098-0.224,0.098
		c-1.771,0-3.224-0.717-4.36-2.152c-1.248,1.436-2.926,2.152-5.031,2.152h-10.482c-0.111,0-0.187-0.037-0.224-0.112
		c-0.037-0.074-0.056-0.13-0.056-0.167v-1.649c0-0.056,0.019-0.116,0.056-0.182s0.112-0.098,0.224-0.098h10.203
		c1.359,0,2.44-0.35,3.242-1.049c0.801-0.698,1.202-1.69,1.202-2.977c0-1.155-0.42-2.101-1.258-2.837
		c-0.839-0.736-2.106-1.104-3.802-1.104h-7.24l-0.978-2.208l8.162-9.029h3.074l-8.609,9.029H143.241z"/>
	<path fill="#00B2AD" d="M153.221,22.341c-0.111,0-0.187-0.037-0.224-0.112c-0.037-0.074-0.056-0.13-0.056-0.167v-1.649
		c0-0.056,0.019-0.116,0.056-0.182s0.112-0.098,0.224-0.098h5.535V8.839h2.403v13.501H153.221z M155.904,6.1V3.277h2.628V6.1
		H155.904z M161.159,6.1V3.277h2.628V6.1H161.159z"/>
</g>
</svg>
