<?xml version="1.0" encoding="utf-8"?>
<!-- Generator: Adobe Illustrator 16.0.0, SVG Export Plug-In . SVG Version: 6.00 Build 0)  -->
<!DOCTYPE svg PUBLIC "-//W3C//DTD SVG 1.1//EN" "http://www.w3.org/Graphics/SVG/1.1/DTD/svg11.dtd">
<svg version="1.1" id="Layer_1" xmlns="http://www.w3.org/2000/svg" xmlns:xlink="http://www.w3.org/1999/xlink" x="0px" y="0px"
	 width="165px" height="29.875px" viewBox="0 0 165 29.875" enable-background="new 0 0 165 29.875" xml:space="preserve">
<path fill="#00B2AD" d="M25.235,25.91c-5.265,2.797-11.668,1.742-15.752-2.278c-0.538-0.521-1.036-1.101-1.492-1.743
	c-0.352-0.476-0.684-0.992-0.974-1.554c-0.291-0.537-0.539-1.099-0.746-1.679c-0.186-0.518-2.493,1.058-2.62,0.539
	c0-0.27,2.018-2.467,2.018-2.735C4.635,10.842,7.267,4.937,12.593,2.117c5.305-2.818,11.668-1.719,15.752,2.281
	c0.247,0.228,2.549,0.497,2.796,0.746c0.27,0.31-1.553,0.642-1.304,0.994c0.352,0.497,0.684,1.017,0.974,1.554
	c0.29,0.539,0.538,1.098,0.725,1.679c0.29,0.727,0.498,1.451,0.622,2.199v0.02C33.193,17.205,30.54,23.091,25.235,25.91z"/>
<path fill="#00DDC1" d="M25.235,25.91c-5.265,2.797-11.668,1.742-15.752-2.278c-0.538-0.521-1.036-1.101-1.492-1.743
	c-0.352-0.476-0.684-0.992-0.974-1.554c-0.291-0.537-0.539-1.099-0.746-1.679c-0.186-0.518-2.493,1.058-2.62,0.539
	c0-0.27,2.018-2.467,2.018-2.735C4.635,10.842,7.267,4.937,12.593,2.117L25.235,25.91z"/>
<path fill="#00B2AD" d="M13.732,12.978c-1.143,0-2.072-0.93-2.072-2.072c0-1.144,0.93-2.071,2.072-2.071s2.073,0.928,2.073,2.071
	C15.806,12.048,14.875,12.978,13.732,12.978z"/>
<path fill="#04909B" d="M17.877,6.761h2.072v2.073h-2.072V6.761z"/>
<path fill="#A8D3D8" d="M32.157,11.57v0.02c-2.778,2.279-6.57,4.745-10.819,7.006c-3.273,1.739-9.388,4.537-12.413,5.201
	c-2.281,0.622-6.349,1.533-7.468-0.539c-0.829-1.595,0.586-3.813,4.213-6.798c0.125,0.745,0.333,1.472,0.602,2.196
	c-2.507,2.197-3.033,3.379-2.97,3.646c0.351,0.374,2.058,0.312,4.69-0.414c2.963-0.787,7.233-2.402,12.372-5.14
	c5.141-2.736,8.85-5.347,11.171-7.379c2.073-1.782,3.115-3.129,2.992-3.646c-0.165-0.167-1.478-0.436-4.69,0.414
	c-0.458-0.641-0.955-1.221-1.492-1.74c4.496-1.346,7.176-1.223,8.026,0.372C37.552,6.969,34.063,9.952,32.157,11.57z"/>
<path fill="#DEECF1" d="M21.338,18.596c-3.273,1.739-9.388,4.537-12.413,5.201c-2.281,0.622-6.349,1.533-7.468-0.539
	c-0.829-1.595,0.586-3.813,4.213-6.798c0.125,0.745,0.333,1.472,0.602,2.196c-2.507,2.197-3.033,3.379-2.97,3.646
	c0.351,0.374,2.058,0.312,4.69-0.414c2.963-0.787,7.233-2.402,12.372-5.14L21.338,18.596z"/>
<path fill="#FDBF00" d="M33.49,23.341c-1.72,0-3.108,1.39-3.108,3.108s1.388,3.107,3.108,3.107c1.72,0,3.108-1.389,3.108-3.107
	S35.21,23.341,33.49,23.341z"/>
<path fill="#FF9F00" d="M36.598,26.449c0,1.72-1.388,3.107-3.108,3.107V23.34C35.21,23.341,36.598,24.729,36.598,26.449z"/>
<g>
	<path fill="#00B2AD" d="M68.508,19.963c0.389,0.398,0.982,0.598,1.779,0.598h0.569c0.114,0,0.189,0.033,0.228,0.1
		s0.057,0.128,0.057,0.185v1.68c0,0.057-0.019,0.118-0.057,0.185s-0.114,0.1-0.228,0.1h-1.024c-1.48,0-2.581-0.427-3.301-1.28
		c-0.722-0.854-1.082-1.974-1.082-3.358V8.266h-2.106c-1.537,0-2.685,0.427-3.444,1.281c-0.759,0.854-1.138,1.926-1.138,3.216
		v10.046h-8.993c-2.011,0-3.605-0.53-4.781-1.594c-1.177-1.063-1.765-2.485-1.765-4.269V8.693h2.476v8.054
		c0,1.12,0.375,2.035,1.124,2.746c0.75,0.712,1.902,1.067,3.458,1.067h6.005v-7.997c0-1.233,0.266-2.348,0.797-3.344
		c0.531-0.996,1.295-1.779,2.291-2.348s2.158-0.854,3.486-0.854h5.065v11.981C67.924,18.91,68.119,19.564,68.508,19.963z
		 M48.543,28.899v-2.875h2.675v2.875H48.543z M53.894,28.899v-2.875h2.675v2.875H53.894z"/>
	<path fill="#00B2AD" d="M74.783,20.66c0.038,0.066,0.057,0.128,0.057,0.185v1.68c0,0.057-0.019,0.118-0.057,0.185
		s-0.114,0.1-0.228,0.1h-4.439c-0.114,0-0.189-0.033-0.228-0.1c-0.038-0.066-0.057-0.128-0.057-0.185v-1.68
		c0-0.057,0.019-0.118,0.057-0.185c0.039-0.066,0.114-0.1,0.228-0.1h4.439C74.669,20.561,74.745,20.594,74.783,20.66z"/>
	<path fill="#00B2AD" d="M78.482,20.66c0.038,0.066,0.057,0.128,0.057,0.185v1.68c0,0.057-0.019,0.118-0.057,0.185
		s-0.114,0.1-0.228,0.1h-4.439c-0.114,0-0.189-0.033-0.228-0.1c-0.038-0.066-0.057-0.128-0.057-0.185v-1.68
		c0-0.057,0.019-0.118,0.057-0.185c0.039-0.066,0.114-0.1,0.228-0.1h4.439C78.369,20.561,78.444,20.594,78.482,20.66z"/>
	<path fill="#00B2AD" d="M82.182,20.66c0.038,0.066,0.057,0.128,0.057,0.185v1.68c0,0.057-0.019,0.118-0.057,0.185
		s-0.114,0.1-0.228,0.1h-4.439c-0.114,0-0.189-0.033-0.228-0.1c-0.038-0.066-0.057-0.128-0.057-0.185v-1.68
		c0-0.057,0.019-0.118,0.057-0.185c0.039-0.066,0.114-0.1,0.228-0.1h4.439C82.068,20.561,82.144,20.594,82.182,20.66z"/>
	<path fill="#00B2AD" d="M85.882,20.66c0.037,0.066,0.057,0.128,0.057,0.185v1.68c0,0.057-0.02,0.118-0.057,0.185
		c-0.039,0.066-0.114,0.1-0.228,0.1h-4.44c-0.114,0-0.189-0.033-0.228-0.1c-0.038-0.066-0.057-0.128-0.057-0.185v-1.68
		c0-0.057,0.019-0.118,0.057-0.185c0.039-0.066,0.114-0.1,0.228-0.1h4.44C85.768,20.561,85.843,20.594,85.882,20.66z"/>
	<path fill="#00B2AD" d="M89.581,20.66c0.037,0.066,0.057,0.128,0.057,0.185v1.68c0,0.057-0.02,0.118-0.057,0.185
		c-0.039,0.066-0.114,0.1-0.228,0.1h-4.44c-0.113,0-0.189-0.033-0.228-0.1s-0.057-0.128-0.057-0.185v-1.68
		c0-0.057,0.019-0.118,0.057-0.185s0.114-0.1,0.228-0.1h4.44C89.467,20.561,89.542,20.594,89.581,20.66z"/>
	<path fill="#00B2AD" d="M93.28,20.66c0.037,0.066,0.057,0.128,0.057,0.185v1.68c0,0.057-0.02,0.118-0.057,0.185
		c-0.039,0.066-0.114,0.1-0.228,0.1h-4.44c-0.113,0-0.189-0.033-0.228-0.1s-0.057-0.128-0.057-0.185v-1.68
		c0-0.057,0.019-0.118,0.057-0.185s0.114-0.1,0.228-0.1h4.44C93.166,20.561,93.241,20.594,93.28,20.66z"/>
	<path fill="#00B2AD" d="M96.98,20.66c0.037,0.066,0.057,0.128,0.057,0.185v1.68c0,0.057-0.02,0.118-0.057,0.185
		c-0.039,0.066-0.114,0.1-0.228,0.1h-4.44c-0.113,0-0.189-0.033-0.228-0.1s-0.057-0.128-0.057-0.185v-1.68
		c0-0.057,0.019-0.118,0.057-0.185s0.114-0.1,0.228-0.1h4.44C96.866,20.561,96.941,20.594,96.98,20.66z"/>
	<path fill="#00B2AD" d="M100.68,20.66c0.037,0.066,0.057,0.128,0.057,0.185v1.68c0,0.057-0.02,0.118-0.057,0.185
		c-0.039,0.066-0.114,0.1-0.228,0.1h-4.44c-0.113,0-0.189-0.033-0.228-0.1s-0.057-0.128-0.057-0.185v-1.68
		c0-0.057,0.019-0.118,0.057-0.185s0.114-0.1,0.228-0.1h4.44C100.565,20.561,100.641,20.594,100.68,20.66z"/>
	<path fill="#00B2AD" d="M100.451,22.809c-0.114,0-0.189-0.038-0.228-0.113c-0.038-0.076-0.057-0.133-0.057-0.171v-1.68
		c0-0.057,0.019-0.118,0.057-0.185s0.113-0.1,0.228-0.1h3.586V9.063h2.476v13.746H100.451z M103.923,6.274V3.399h2.676v2.875
		H103.923z"/>
	<path fill="#00B2AD" d="M125.553,20.66c0.037,0.066,0.057,0.128,0.057,0.185v1.68c0,0.057-0.02,0.118-0.057,0.185
		c-0.039,0.066-0.114,0.1-0.229,0.1h-2.874c-0.019,1.974-0.579,3.486-1.679,4.539c-1.101,1.054-2.723,1.76-4.867,2.121l-1.024-2.249
		c1.727-0.266,3.003-0.726,3.828-1.38s1.238-1.665,1.238-3.031V11.34c-0.931-0.208-1.774-0.313-2.533-0.313
		c-1.442,0-2.571,0.469-3.387,1.409c-0.816,0.939-1.224,2.13-1.224,3.571c0,1.271,0.389,2.348,1.167,3.23
		c0.777,0.882,1.868,1.323,3.272,1.323h1.793l-0.996,2.248H117.1c-1.423,0-2.651-0.313-3.686-0.938
		c-1.034-0.627-1.821-1.471-2.361-2.533c-0.541-1.063-0.812-2.229-0.812-3.501c0-1.233,0.289-2.39,0.868-3.472
		c0.578-1.082,1.423-1.95,2.532-2.604c1.11-0.655,2.415-0.982,3.914-0.982c1.062,0,2.428,0.162,4.098,0.484
		c0.133,0.019,0.398,0.067,0.797,0.142v11.156h2.874C125.438,20.561,125.514,20.594,125.553,20.66z"/>
	<path fill="#00B2AD" d="M129.252,20.66c0.037,0.066,0.057,0.128,0.057,0.185v1.68c0,0.057-0.02,0.118-0.057,0.185
		c-0.039,0.066-0.114,0.1-0.228,0.1h-4.44c-0.113,0-0.189-0.033-0.228-0.1s-0.057-0.128-0.057-0.185v-1.68
		c0-0.057,0.019-0.118,0.057-0.185s0.114-0.1,0.228-0.1h4.44C129.138,20.561,129.213,20.594,129.252,20.66z"/>
	<path fill="#00B2AD" d="M132.951,20.66c0.037,0.066,0.057,0.128,0.057,0.185v1.68c0,0.057-0.02,0.118-0.057,0.185
		c-0.039,0.066-0.114,0.1-0.228,0.1h-4.44c-0.113,0-0.189-0.033-0.228-0.1s-0.057-0.128-0.057-0.185v-1.68
		c0-0.057,0.019-0.118,0.057-0.185s0.114-0.1,0.228-0.1h4.44C132.837,20.561,132.912,20.594,132.951,20.66z"/>
	<path fill="#00B2AD" d="M142.798,10.201c1.632,0,2.998,0.266,4.099,0.797c1.1,0.532,1.916,1.257,2.447,2.177
		c0.531,0.92,0.797,1.95,0.797,3.088c0,0.93-0.181,1.831-0.541,2.703c0.684,1.063,1.803,1.594,3.358,1.594
		c0.114,0,0.189,0.033,0.228,0.1s0.058,0.128,0.058,0.185v1.68c0,0.057-0.02,0.118-0.058,0.185s-0.113,0.1-0.228,0.1
		c-1.803,0-3.282-0.729-4.439-2.191c-1.271,1.462-2.979,2.191-5.123,2.191h-10.672c-0.114,0-0.189-0.038-0.228-0.113
		c-0.038-0.076-0.057-0.133-0.057-0.171v-1.68c0-0.057,0.019-0.118,0.057-0.185s0.113-0.1,0.228-0.1h10.388
		c1.385,0,2.485-0.355,3.302-1.067c0.815-0.711,1.224-1.722,1.224-3.03c0-1.177-0.428-2.139-1.281-2.889
		c-0.854-0.749-2.144-1.124-3.87-1.124h-7.371l-0.996-2.249l8.311-9.192h3.13l-8.766,9.192H142.798z"/>
	<path fill="#00B2AD" d="M152.958,22.809c-0.114,0-0.189-0.038-0.228-0.113c-0.038-0.076-0.057-0.133-0.057-0.171v-1.68
		c0-0.057,0.019-0.118,0.057-0.185s0.113-0.1,0.228-0.1h5.635V9.063h2.447v13.746H152.958z M155.69,6.274V3.399h2.675v2.875H155.69z
		 M161.04,6.274V3.399h2.676v2.875H161.04z"/>
</g>
</svg>
